<svg xmlns="http://www.w3.org/2000/svg" viewBox="0 0 800 500" width="800" height="500">
  <defs>
    <linearGradient id="bgGrad2" x1="0" y1="0" x2="0" y2="1">
      <stop offset="0%" stop-color="#f1f5f9" />
      <stop offset="100%" stop-color="#cbd5e1" />
    </linearGradient>
    <linearGradient id="growerGrad" x1="0" y1="0" x2="1" y2="1">
      <stop offset="0%" stop-color="#fed7aa" />
      <stop offset="50%" stop-color="#fb923c" />
      <stop offset="100%" stop-color="#c2410c" />
    </linearGradient>
  </defs>

  <rect width="800" height="500" fill="url(#bgGrad2)" />
  <line x1="0" y1="410" x2="800" y2="410" stroke="#94a3b8" stroke-width="4" stroke-dasharray="12 12" />
  <rect x="0" y="410" width="800" height="90" fill="#e2e8f0" />

  <!-- Shadow -->
  <ellipse cx="430" cy="415" rx="230" ry="28" fill="rgba(0,0,0,0.22)" />

  <!-- Back Legs -->
  <path d="M 280 320 L 270 410 L 300 410 L 310 320 Z" fill="#9a3412" />
  <path d="M 590 310 L 580 410 L 615 410 L 620 310 Z" fill="#9a3412" />

  <!-- Torso & Ham -->
  <path d="M 190 270 C 180 230 240 180 340 170 C 460 160 620 170 670 210 C 720 250 710 335 650 365 C 570 395 380 395 280 360 C 220 335 180 300 190 270 Z" fill="url(#growerGrad)" />

  <!-- Head -->
  <path d="M 240 220 C 200 200 140 220 110 260 C 90 290 120 325 170 330 C 220 335 250 300 250 250 Z" fill="#ea580c" />
  <ellipse cx="100" cy="275" rx="20" ry="28" fill="#ffedd5" stroke="#c2410c" stroke-width="3" />
  <ellipse cx="96" cy="270" rx="5" ry="8" fill="#7c2d12" />
  <ellipse cx="96" cy="282" rx="5" ry="8" fill="#7c2d12" />

  <!-- Eye -->
  <circle cx="170" cy="245" r="7" fill="#1e293b" />
  <circle cx="168" cy="243" r="2.5" fill="#ffffff" />

  <!-- Drooping Ear -->
  <path d="M 195 210 C 215 160 270 170 260 225 C 240 255 210 245 195 210 Z" fill="#fed7aa" stroke="#c2410c" stroke-width="2.5" />

  <!-- Curly Tail -->
  <path d="M 685 225 C 720 215 745 190 730 170 C 710 155 700 195 740 180" fill="none" stroke="#ea580c" stroke-width="8" stroke-linecap="round" />

  <!-- Front Legs -->
  <path d="M 240 320 L 225 410 L 260 410 L 270 320 Z" fill="#ea580c" />
  <path d="M 545 320 L 530 410 L 565 410 L 575 320 Z" fill="#ea580c" />

  <!-- Label Badge -->
  <rect x="30" y="30" width="220" height="42" rx="8" fill="#1e293b" opacity="0.85" />
  <text x="45" y="56" font-family="sans-serif" font-weight="bold" font-size="16" fill="#f97316">● SAMPLE 2: GROWER</text>
</svg>
